<svg id="Layer_1" data-name="Layer 1" xmlns="http://www.w3.org/2000/svg" viewBox="0 0 114.03 96.78"><title>Untitled-3</title><path d="M8.54,98c21.07-27.2,42-54.64,55-86.76l-11,1.44a643,643,0,0,0,48.42,85c4.3,6.36,14.7.36,10.36-6.06A643,643,0,0,1,63,6.57C60.49,1.36,53.71,3.76,52,8,39.79,38,19.75,64,.06,89.46c-2,2.59-2.47,6,0,8.49,2,2.09,6.5,2.56,8.48,0Z" transform="translate(1.62 -3.6)"/><path d="M5.2,100.35c32.15-2.48,65.56-7.3,97.56-1.13,7.54,1.46,10.77-10.11,3.19-11.57-33.22-6.41-67.36-1.88-100.75.7-7.65.59-7.72,12.59,0,12Z" transform="translate(1.62 -3.6)"/><path d="M22.7,90.81C31.66,82.35,38.43,72,45,61.68a155.62,155.62,0,0,0,8.82-15.07c2.31-4.74,3.5-11,7.45-14.69L54,32.86c1.88,1.36,3.09,5.26,4.07,7.23q2,4,3.81,8c2.52,5.59,4.68,11.33,7.12,17,4.47,10.36,10.45,19.85,20.17,26l3-11.18a625.24,625.24,0,0,0-66.93-.38l3,11.18C35.71,85.8,40.84,78.83,45,71.1c2-3.79,3.83-7.69,5.87-11.48s4.58-9.39,8.3-11.63l-4.62.6c.93.18,2.7,4,3.34,5.13,1.37,2.39,2.66,4.85,3.89,7.32,2.32,4.67,5.52,9.9,6.59,15l1.54-5.84c1.33-.44.82-.44-1.51,0q-1.89.15-3.78.18c-2.23.06-4.47,0-6.71,0l-14.62,0,5.78,7.6c1.26-3.62,3.52-6.73,5.29-10.09a39,39,0,0,0,2.21-4.88c.59-1.63.73-4.16,1.91-5.49L49,56.4c1.82,2.51,3.59,5.05,5.26,7.67C55.75,66.33,58,69,58.7,71.6l1.54-5.84c.42-.53-2.85-.41-3-.44l3.58,8.81a40.91,40.91,0,0,1,3.16-5.68C68.24,62,57.85,56,53.58,62.4a40.35,40.35,0,0,0-3.16,5.67C49,71.2,49.82,76.22,54,76.89c5.33.85,15.37,1.28,16.37-6.09.47-3.49-2-6.8-3.75-9.63-2.25-3.72-4.68-7.31-7.22-10.83C57.29,47.43,52.76,46,50,49.13,46.6,53,46.29,57.55,44,61.92s-4.88,8.3-6.5,13c-1.29,3.72,2.1,7.6,5.79,7.59,7.1,0,14.23.11,21.33-.08,5.27-.14,13.49,0,15.32-6.34,1.44-5-3.75-12.55-5.8-16.91-2.74-5.84-5.55-12-9.62-17.1-3.15-3.91-7.63-7-12.47-3.77C47.39,41.4,44,47.35,41.28,52.13c-5.46,9.75-9.27,21.76-19,28.17-4.69,3.08-3.25,11.48,3,11.19a625.24,625.24,0,0,1,66.93.38c6.22.36,7.78-8.18,3-11.18-10-6.31-14.31-17.82-18.57-28.28-2.2-5.39-4.52-10.74-7-16S64.88,26,60.06,22.49c-2.18-1.58-5.46-.75-7.27.94-3.89,3.64-5.58,8.28-7.53,13.1a104.35,104.35,0,0,1-8.74,16.14C29.91,63.18,23.3,73.75,14.21,82.32c-5.63,5.31,2.87,13.79,8.49,8.49Z" transform="translate(1.62 -3.6)"/></svg>